<svg id="Layer_1" enable-background="new 0 0 512 512" height="512" viewBox="0 0 512 512" width="512" xmlns="http://www.w3.org/2000/svg">
    <g>
        <path d="m456.739 440.581-401.47.012c-11.46 0-20.75-9.289-20.751-20.749l-.008-271.969c0-11.46 9.29-20.751 20.75-20.751l401.469-.012c11.46 0 20.75 9.29 20.751 20.749l.008 271.97c.001 11.459-9.289 20.75-20.749 20.75z" fill="#4380a0"/>
        <path d="m477.489 419.684c0 11.536-9.22 20.899-20.604 20.899h-30.905c11.383 0 20.604-9.363 20.604-20.899l-.01-271.674c0-11.526-9.189-20.867-20.552-20.899h30.854c11.383 0 20.604 9.352 20.604 20.899z" fill="#3b7191"/>
        <path d="m446.583 405.177c0 2.241-1.791 4.057-4 4.057h-26.905l-346.251.01c-2.209 0-4-1.816-4-4.057l-.01-242.661c0-2.241 1.791-4.057 4-4.057l346.251-.01h26.906c2.209 0 4 1.816 4 4.057z" fill="#f3f3f3"/>
        <path d="m442.583 409.234h-26.905l-.01-250.775h26.906c2.209 0 4 1.816 4 4.057l.01 242.661c-.001 2.241-1.791 4.057-4.001 4.057z" fill="#e4e4e4"/>
        <path d="m485.203 488h-458.406c-14.8 0-26.797-11.997-26.797-26.797v-20.636c0-2.277 1.846-4.123 4.123-4.123h503.755c2.277 0 4.123 1.846 4.123 4.123v20.636c-.001 14.8-11.998 26.797-26.798 26.797z" fill="#a9dbf5"/>
        <path d="m507.879 436.444h-30.905c2.276 0 4.121 1.847 4.121 4.124v20.622c0 14.806-11.992 26.809-26.785 26.809h30.905c14.793.001 26.785-12.002 26.785-26.808v-20.622c0-2.278-1.845-4.125-4.121-4.125z" fill="#88c3e0"/>
        <path d="m291.02 461.191h-70.04c-6.831 0-12.368-5.537-12.368-12.368v-12.379h94.776v12.379c0 6.831-5.537 12.368-12.368 12.368z" fill="#88c3e0"/>
        <path d="m378.587 364.267h-245.174c-5.692 0-10.306-4.614-10.306-10.306v-319.655c0-5.692 4.614-10.306 10.306-10.306h245.174c5.692 0 10.306 4.614 10.306 10.306v319.654c0 5.692-4.614 10.307-10.306 10.307z" fill="#29cef6"/>
        <path d="m357.988 24v340.267h20.604c5.69 0 10.302-4.616 10.302-10.311v-319.645c0-5.695-4.612-10.311-10.302-10.311z" fill="#22b5ed"/>
        <path d="m388.893 75.556h-265.786v-41.25c0-5.692 4.614-10.306 10.306-10.306h245.174c5.692 0 10.306 4.614 10.306 10.306z" fill="#f78e36"/>
        <path d="m357.988 24v51.556h30.905v-41.245c0-5.695-4.612-10.311-10.302-10.311z" fill="#f86f1b"/>
        <g>
            <path d="m159.163 42.271h-8.242c-4.142 0-7.5 3.361-7.5 7.507s3.358 7.507 7.5 7.507h8.242c4.142 0 7.5-3.361 7.5-7.507s-3.358-7.507-7.5-7.507z" fill="#ffc328"/>
            <path d="m200.37 42.271h-8.241c-4.142 0-7.5 3.361-7.5 7.507s3.358 7.507 7.5 7.507h8.241c4.142 0 7.5-3.361 7.5-7.507s-3.358-7.507-7.5-7.507z" fill="#f3f3f3"/>
            <path d="m241.578 42.271h-8.242c-4.142 0-7.5 3.361-7.5 7.507s3.358 7.507 7.5 7.507h8.242c4.142 0 7.5-3.361 7.5-7.507s-3.358-7.507-7.5-7.507z" fill="#7be492"/>
        </g>
        <g fill="#f3f3f3">
            <path d="m202.012 116.313h1.311v33.753c0 4.146 3.358 7.507 7.5 7.507s7.5-3.361 7.5-7.507v-41.259c0-4.146-3.358-7.507-7.5-7.507h-8.811c-4.142 0-7.5 3.361-7.5 7.507 0 4.145 3.358 7.506 7.5 7.506z"/>
            <path d="m165.338 242.129c4.142 0 7.5-3.361 7.5-7.507v-41.259c0-4.146-3.358-7.507-7.5-7.507h-8.811c-4.142 0-7.5 3.361-7.5 7.507s3.358 7.507 7.5 7.507h1.311v33.753c0 4.145 3.358 7.506 7.5 7.506z"/>
            <path d="m160.933 100.457c-10.708 0-19.421 8.72-19.421 19.438v19.081c0 10.718 8.712 19.438 19.421 19.438s19.42-8.72 19.42-19.438v-19.081c.001-10.718-8.711-19.438-19.42-19.438zm4.421 38.519c0 2.44-1.983 4.425-4.42 4.425s-4.421-1.985-4.421-4.425v-19.081c0-2.44 1.983-4.424 4.421-4.424s4.42 1.985 4.42 4.424z"/>
            <path d="m210.823 185.014c-10.708 0-19.42 8.72-19.42 19.438v19.081c0 10.718 8.712 19.438 19.42 19.438s19.42-8.72 19.42-19.438v-19.081c.001-10.719-8.711-19.438-19.42-19.438zm4.421 38.518c0 2.44-1.983 4.425-4.42 4.425s-4.42-1.985-4.42-4.425v-19.081c0-2.44 1.983-4.424 4.42-4.424s4.42 1.985 4.42 4.424z"/>
            <path d="m260.405 242.129c4.143 0 7.5-3.361 7.5-7.507v-41.259c0-4.146-3.357-7.507-7.5-7.507h-8.811c-4.142 0-7.5 3.361-7.5 7.507s3.358 7.507 7.5 7.507h1.311v33.753c0 4.145 3.358 7.506 7.5 7.506z"/>
            <path d="m355.473 242.129c4.143 0 7.5-3.361 7.5-7.507v-41.259c0-4.146-3.357-7.507-7.5-7.507h-8.811c-4.143 0-7.5 3.361-7.5 7.507s3.357 7.507 7.5 7.507h1.311v33.753c0 4.145 3.357 7.506 7.5 7.506z"/>
            <path d="m305.891 185.014c-10.709 0-19.421 8.72-19.421 19.438v19.081c0 10.718 8.712 19.438 19.421 19.438 10.708 0 19.42-8.72 19.42-19.438v-19.081c0-10.719-8.712-19.438-19.42-19.438zm4.42 38.518c0 2.44-1.982 4.425-4.42 4.425s-4.421-1.985-4.421-4.425v-19.081c0-2.44 1.983-4.424 4.421-4.424s4.42 1.985 4.42 4.424z"/>
            <path d="m297.079 116.313h1.312v33.753c0 4.146 3.357 7.507 7.5 7.507s7.5-3.361 7.5-7.507v-41.259c0-4.146-3.357-7.507-7.5-7.507h-8.812c-4.143 0-7.5 3.361-7.5 7.507 0 4.145 3.358 7.506 7.5 7.506z"/>
            <path d="m256 100.457c-10.708 0-19.42 8.72-19.42 19.438v19.081c0 10.718 8.712 19.438 19.42 19.438 10.709 0 19.421-8.72 19.421-19.438v-19.081c0-10.718-8.712-19.438-19.421-19.438zm4.421 38.519c0 2.44-1.983 4.425-4.421 4.425s-4.42-1.985-4.42-4.425v-19.081c0-2.44 1.983-4.424 4.42-4.424s4.421 1.985 4.421 4.424z"/>
            <path d="m351.067 100.457c-10.709 0-19.421 8.72-19.421 19.438v19.081c0 10.718 8.712 19.438 19.421 19.438 10.708 0 19.42-8.72 19.42-19.438v-19.081c0-10.718-8.712-19.438-19.42-19.438zm4.42 38.519c0 2.44-1.982 4.425-4.42 4.425s-4.421-1.985-4.421-4.425v-19.081c0-2.44 1.983-4.424 4.421-4.424s4.42 1.985 4.42 4.424z"/>
            <path d="m210.823 270.832h-8.811c-4.142 0-7.5 3.361-7.5 7.507s3.358 7.507 7.5 7.507h1.311v33.753c0 4.146 3.358 7.507 7.5 7.507s7.5-3.361 7.5-7.507v-41.259c0-4.147-3.358-7.508-7.5-7.508z"/>
            <path d="m160.933 269.99c-10.708 0-19.421 8.72-19.421 19.438v19.081c0 10.718 8.712 19.438 19.421 19.438s19.42-8.72 19.42-19.438v-19.081c.001-10.718-8.711-19.438-19.42-19.438zm4.421 38.519c0 2.44-1.983 4.424-4.42 4.424s-4.421-1.985-4.421-4.424v-19.081c0-2.44 1.983-4.425 4.421-4.425s4.42 1.985 4.42 4.425z"/>
            <path d="m305.891 270.832h-8.812c-4.143 0-7.5 3.361-7.5 7.507s3.357 7.507 7.5 7.507h1.312v33.753c0 4.146 3.357 7.507 7.5 7.507s7.5-3.361 7.5-7.507v-41.259c0-4.147-3.358-7.508-7.5-7.508z"/>
            <path d="m256 269.99c-10.708 0-19.42 8.72-19.42 19.438v19.081c0 10.718 8.712 19.438 19.42 19.438 10.709 0 19.421-8.72 19.421-19.438v-19.081c0-10.718-8.712-19.438-19.421-19.438zm4.421 38.519c0 2.44-1.983 4.424-4.421 4.424s-4.42-1.985-4.42-4.424v-19.081c0-2.44 1.983-4.425 4.42-4.425s4.421 1.985 4.421 4.425z"/>
            <path d="m351.067 269.99c-10.709 0-19.421 8.72-19.421 19.438v19.081c0 10.718 8.712 19.438 19.421 19.438 10.708 0 19.42-8.72 19.42-19.438v-19.081c0-10.718-8.712-19.438-19.42-19.438zm4.42 38.519c0 2.44-1.982 4.424-4.42 4.424s-4.421-1.985-4.421-4.424v-19.081c0-2.44 1.983-4.425 4.421-4.425s4.42 1.985 4.42 4.425z"/>
        </g>
    </g>
</svg>