<?xml version="1.0" encoding="UTF-8"?>
<svg width="16px" height="16px" viewBox="0 0 16 16" version="1.1" xmlns="http://www.w3.org/2000/svg" xmlns:xlink="http://www.w3.org/1999/xlink">
    <!-- Generator: Sketch 53.2 (72643) - https://sketchapp.com -->
    <title>chess-board</title>
    <desc>Created with Sketch.</desc>
    <g id="Page-1" stroke="none" stroke-width="1" fill="none" fill-rule="evenodd">
        <g id="Group-10" transform="translate(-1171.000000, -46.000000)" fill="#424242" fill-rule="nonzero">
            <g id="Group-9">
                <path d="M1186.97917,56.6666667 L1186.97917,60.9791667 C1186.97917,61.5314514 1186.53145,61.9791667 1185.97917,61.9791667 L1181.66667,61.9791667 L1181.66667,56.6666667 L1186.97917,56.6666667 Z M1176.3125,56.6666667 L1176.3125,61.9791667 L1172,61.9791667 C1171.44772,61.9791667 1171,61.5314514 1171,60.9791667 L1171,56.6666667 L1176.3125,56.6666667 Z M1181.64583,51.3333333 L1181.64583,56.6458333 L1176.33333,56.6458333 L1176.33333,51.3333333 L1181.64583,51.3333333 Z M1186.97917,47 L1186.97917,51.3125 L1181.66667,51.3125 L1181.66667,46 L1185.97917,46 C1186.53145,46 1186.97917,46.4477153 1186.97917,47 Z M1176.3125,46 L1176.3125,51.3125 L1171,51.3125 L1171,47 C1171,46.4477153 1171.44772,46 1172,46 L1176.3125,46 Z" id="chess-board"></path>
            </g>
        </g>
    </g>
</svg>