<?xml version="1.0" encoding="UTF-8"?>
<svg width="12px" height="9px" viewBox="0 0 12 9" version="1.1" xmlns="http://www.w3.org/2000/svg" xmlns:xlink="http://www.w3.org/1999/xlink">
    <!-- Generator: Sketch 53.2 (72643) - https://sketchapp.com -->
    <title>1:1</title>
    <desc>Created with Sketch.</desc>
    <g id="Page-1" stroke="none" stroke-width="1" fill="none" fill-rule="evenodd">
        <g id="Group-5" transform="translate(-22.000000, -8.000000)" fill="#424242" fill-rule="nonzero">
            <path d="M25.5595703,16 L24.6513672,16 L24.6513672,9.97949219 L22.8300781,10.6484375 L22.8300781,9.828125 L25.4179688,8.85644531 L25.5595703,8.85644531 L25.5595703,16 Z M28.2695312,15.5263672 C28.2695312,15.3701164 28.3159175,15.2399094 28.4086914,15.1357422 C28.5014653,15.031575 28.6406241,14.9794922 28.8261719,14.9794922 C29.0117197,14.9794922 29.152506,15.031575 29.2485352,15.1357422 C29.3445643,15.2399094 29.3925781,15.3701164 29.3925781,15.5263672 C29.3925781,15.6761075 29.3445643,15.8014318 29.2485352,15.9023438 C29.152506,16.0032557 29.0117197,16.0537109 28.8261719,16.0537109 C28.6406241,16.0537109 28.5014653,16.0032557 28.4086914,15.9023438 C28.3159175,15.8014318 28.2695312,15.6761075 28.2695312,15.5263672 Z M28.2744141,11.2148438 C28.2744141,11.058593 28.3208003,10.9283859 28.4135742,10.8242188 C28.5063481,10.7200516 28.6455069,10.6679688 28.8310547,10.6679688 C29.0166025,10.6679688 29.1573888,10.7200516 29.253418,10.8242188 C29.3494471,10.9283859 29.3974609,11.058593 29.3974609,11.2148438 C29.3974609,11.3645841 29.3494471,11.4899083 29.253418,11.5908203 C29.1573888,11.6917323 29.0166025,11.7421875 28.8310547,11.7421875 C28.6455069,11.7421875 28.5063481,11.6917323 28.4135742,11.5908203 C28.3208003,11.4899083 28.2744141,11.3645841 28.2744141,11.2148438 Z M33.5966797,16 L32.6884766,16 L32.6884766,9.97949219 L30.8671875,10.6484375 L30.8671875,9.828125 L33.4550781,8.85644531 L33.5966797,8.85644531 L33.5966797,16 Z" id="1:1"></path>
        </g>
    </g>
</svg>