<svg xmlns="http://www.w3.org/2000/svg" width="33" height="11" viewBox="0 0 33 11">
    <path fill="#92979A" d="M3.975 10.763H2.707v-8.23l-2.545.914V2.325L3.778.997h.197v9.766zm9.926-4.145c0 1.446-.253 2.52-.757 3.224-.505.703-1.294 1.055-2.368 1.055-1.06 0-1.844-.344-2.353-1.032-.51-.687-.773-1.714-.791-3.08v-1.65c0-1.428.252-2.49.757-3.184S9.685.91 10.763.91c1.069 0 1.855.335 2.36 1.005.505.67.764 1.703.778 3.1v1.603zm-1.262-1.69c0-1.045-.15-1.807-.45-2.286-.3-.478-.776-.717-1.426-.717-.646 0-1.117.238-1.412.714-.296.476-.448 1.208-.457 2.196v1.976c0 1.05.155 1.826.467 2.327.312.5.783.75 1.415.75.624 0 1.086-.235 1.389-.707.302-.472.46-1.215.474-2.23V4.93zm9.107 1.69c0 1.446-.253 2.52-.758 3.224-.504.703-1.293 1.055-2.367 1.055-1.06 0-1.844-.344-2.353-1.032-.51-.687-.773-1.714-.791-3.08v-1.65c0-1.428.252-2.49.757-3.184S17.53.91 18.608.91c1.068 0 1.855.335 2.36 1.005.505.67.764 1.703.778 3.1v1.603zm-1.262-1.69c0-1.045-.15-1.807-.45-2.286-.3-.478-.776-.717-1.426-.717-.646 0-1.117.238-1.412.714-.296.476-.448 1.208-.457 2.196v1.976c0 1.05.155 1.826.467 2.327.311.5.783.75 1.415.75.623 0 1.086-.235 1.388-.707.303-.472.46-1.215.475-2.23V4.93zm2.77-2.015c0-.583.189-1.064.569-1.442.38-.379.867-.568 1.463-.568.605 0 1.095.19 1.47.571.375.38.563.873.563 1.479v.474c0 .587-.19 1.067-.57 1.438-.38.372-.863.558-1.45.558-.59 0-1.08-.186-1.466-.558-.387-.371-.58-.866-.58-1.485v-.467zm.94.514c0 .347.1.633.3.857.2.225.47.338.806.338.322 0 .583-.11.78-.327.199-.219.297-.517.297-.895v-.487c0-.347-.097-.635-.293-.861-.195-.227-.462-.34-.798-.34-.337 0-.603.113-.798.34-.196.226-.293.522-.293.887v.488zM28.09 8.38c0-.583.19-1.063.57-1.439.379-.376.867-.564 1.462-.564.596 0 1.085.187 1.467.561.382.374.573.87.573 1.489V8.9c0 .583-.19 1.062-.57 1.438-.38.376-.865.564-1.456.564s-1.08-.185-1.467-.557c-.386-.372-.58-.867-.58-1.485V8.38zm.941.52c0 .352.1.64.3.865.2.225.469.337.805.337.328 0 .589-.11.785-.33.195-.22.293-.52.293-.898V8.38c0-.352-.099-.639-.297-.861-.198-.223-.463-.334-.795-.334-.322 0-.585.11-.787.33-.203.22-.304.518-.304.892V8.9zm-3.445 1.129l-.716-.44 4.85-7.598.716.441-4.85 7.597z"/>
</svg>
