<?xml version="1.0" encoding="UTF-8"?>
<svg width="16px" height="16px" viewBox="0 0 16 16" version="1.1" xmlns="http://www.w3.org/2000/svg" xmlns:xlink="http://www.w3.org/1999/xlink">
    <!-- Generator: Sketch 53.2 (72643) - https://sketchapp.com -->
    <title>Group 6</title>
    <desc>Created with Sketch.</desc>
    <g id="Page-1" stroke="none" stroke-width="1" fill="none" fill-rule="evenodd">
        <g id="Group-5" transform="translate(0.000000, -75.000000)">
            <g id="Group-6" transform="translate(0.000000, 75.000000)">
                <rect id="plus-copy" stroke="#C5C5C5" x="0.5" y="0.5" width="15" height="15" rx="1"></rect>
                <path d="M8.66662597,8.66662597 L8.66662597,11.5 C8.66662597,11.868042 8.368042,12.166626 8,12.166626 C7.631958,12.166626 7.33337403,11.868042 7.33337403,11.5 L7.33337403,8.66662597 L4.5,8.66662597 C4.131958,8.66662597 3.83337403,8.368042 3.83337403,8 C3.83337403,7.631958 4.131958,7.33337403 4.5,7.33337403 L7.33337403,7.33337403 L7.33337403,4.5 C7.33337403,4.131958 7.631958,3.83337403 8,3.83337403 C8.368042,3.83337403 8.66662597,4.131958 8.66662597,4.5 L8.66662597,7.33337403 L11.5,7.33337403 C11.868042,7.33337403 12.166626,7.631958 12.166626,8 C12.166626,8.368042 11.868042,8.66662597 11.5,8.66662597 L8.66662597,8.66662597 Z" id="Path" fill="#424242"></path>
            </g>
        </g>
    </g>
</svg>